<?xml version="1.0" encoding="UTF-8"?>
<svg width="381px" height="121px" viewBox="0 0 381 121" version="1.1" xmlns="http://www.w3.org/2000/svg" xmlns:xlink="http://www.w3.org/1999/xlink">
    <!-- Generator: Sketch 50.2 (55047) - http://www.bohemiancoding.com/sketch -->
    <title>Group 2</title>
    <desc>Created with Sketch.</desc>
    <defs></defs>
    <g id="Page-1" stroke="none" stroke-width="1" fill="none" fill-rule="evenodd">
        <g id="logo" transform="translate(-230.000000, -237.000000)">
            <g id="Group-2" transform="translate(230.000000, 237.000000)">
                <path d="M145.38217,121 C140.791124,121 136.746692,119.968606 133.248753,117.905787 C129.313571,115.734399 126.088957,112.423082 123.574813,107.971736 C119.858252,101.674711 118,93.6406949 118,83.8694482 L118,69.2126514 C118,59.4414047 119.858252,51.407389 123.574813,45.1103634 C126.088957,40.6590177 129.313571,37.3477004 133.248753,35.1763122 C136.746692,33.1134935 140.791124,32.0820996 145.38217,32.0820996 C149.535973,32.0820996 153.088514,32.9506418 156.0399,34.6877524 C159.428529,36.6420017 162.270562,39.5190478 164.566085,43.3189771 L164.566085,20.5195155 L159.647132,20.5195155 L159.647132,0 L187.521197,0 L187.521197,99.1776581 L192.44015,99.1776581 L192.44015,119.697174 L164.566085,119.697174 L164.566085,109.763122 C162.270562,113.563052 159.428529,116.440098 156.0399,118.394347 C153.088514,120.131458 149.535973,121 145.38217,121 Z M153.908354,100.480485 C155.548013,100.480485 157.023684,100.154781 158.335411,99.5033647 C159.756449,98.6348095 160.958848,97.3319961 161.942643,95.5948856 C163.691613,92.6635116 164.566085,88.7550715 164.566085,83.8694482 L164.566085,69.2126514 C164.566085,64.3270281 163.691613,60.418588 161.942643,57.487214 C160.958848,55.7501035 159.756449,54.4472901 158.335411,53.5787349 C157.023684,52.9273184 155.548013,52.6016151 153.908354,52.6016151 C151.612831,52.6016151 149.64527,53.0901701 148.005611,54.0672948 C146.147331,55.1529888 144.617005,56.7272216 143.414589,58.7900404 C141.774929,61.5042756 140.955112,64.9784445 140.955112,69.2126514 L140.955112,83.8694482 C140.955112,88.1036551 141.774929,91.577824 143.414589,94.2920592 C144.617005,96.354878 146.147331,97.9291108 148.005611,99.0148048 C149.64527,99.9919295 151.612831,100.480485 153.908354,100.480485 Z M218.565254,121 C211.022822,121 204.573593,119.480051 199.217373,116.440108 C194.298396,113.508734 190.417928,109.600294 187.575852,104.71467 C184.187223,98.9604916 182.492934,92.0121538 182.492934,83.8694482 L182.492934,69.2126514 C182.492934,61.0699458 184.187223,54.121608 187.575852,48.3674293 C190.417928,43.481806 194.298396,39.5733659 199.217373,36.6419919 C204.573593,33.6020485 211.022822,32.0820996 218.565254,32.0820996 C226.107685,32.0820996 232.556914,33.6020485 237.913134,36.6419919 C242.832111,39.5733659 246.712579,43.481806 249.554655,48.3674293 C252.943284,54.121608 254.637573,61.0699458 254.637573,69.2126514 L254.637573,83.8694482 C254.637573,92.0121538 252.943284,98.9604916 249.554655,104.71467 C246.712579,109.600294 242.832111,113.508734 237.913134,116.440108 C232.556914,119.480051 226.107685,121 218.565254,121 Z M218.565254,100.480485 C220.970087,100.480485 222.992303,99.9919295 224.631962,99.0148048 C226.490242,97.9291108 228.020568,96.354878 229.222984,94.2920592 C230.862643,91.577824 231.682461,88.1036551 231.682461,83.8694482 L231.682461,69.2126514 C231.682461,64.9784445 230.862643,61.5042756 229.222984,58.7900404 C228.020568,56.7272216 226.490242,55.1529888 224.631962,54.0672948 C222.992303,53.0901701 220.970087,52.6016151 218.565254,52.6016151 C216.16042,52.6016151 214.138204,53.0901701 212.498545,54.0672948 C210.640265,55.1529888 209.10994,56.7272216 207.907523,58.7900404 C206.267864,61.5042756 205.448047,64.9784445 205.448047,69.2126514 L205.448047,83.8694482 C205.448047,88.1036551 206.267864,91.577824 207.907523,94.2920592 C209.10994,96.354878 210.640265,97.9291108 212.498545,99.0148048 C214.138204,99.9919295 216.16042,100.480485 218.565254,100.480485 Z M284.916459,121 C282.402315,121 280.052172,120.837148 277.86596,120.51144 C273.384225,119.860024 269.394448,118.502926 265.896509,116.440108 C260.977532,113.617303 257.097063,109.763147 254.254988,104.877524 C250.866359,99.1233449 249.17207,92.1207232 249.17207,83.8694482 L249.17207,69.2126514 C249.17207,60.9613764 250.866359,53.9587547 254.254988,48.204576 C257.097063,43.3189527 260.977532,39.4647965 265.896509,36.6419919 C271.143418,33.6020485 277.483338,32.0820996 284.916459,32.0820996 C292.240269,32.0820996 298.580189,33.6020485 303.936409,36.6419919 C308.855386,39.4647965 312.6812,43.3189527 315.413965,48.204576 C317.272245,51.3530889 318.638607,54.8272578 319.513092,58.6271871 L297.541771,64.4899058 C297.104528,62.3185176 296.39402,60.3642976 295.410224,58.6271871 C294.207808,56.6729377 292.732137,55.1801308 290.983167,54.1487214 C289.234197,53.117312 287.211982,52.6016151 284.916459,52.6016151 C282.620936,52.6016151 280.626048,53.0901701 278.931733,54.0672948 C277.237419,55.0444194 275.789075,56.5643683 274.586658,58.6271871 C272.946999,61.3414223 272.127182,64.8698751 272.127182,69.2126514 L272.127182,83.8694482 C272.127182,88.2122245 272.946999,91.7406773 274.586658,94.4549125 C275.789075,96.5177313 277.237419,98.0376802 278.931733,99.0148048 C280.626048,99.9919295 282.620936,100.480485 284.916459,100.480485 C287.211982,100.480485 289.234197,99.9647876 290.983167,98.9333782 C292.732137,97.9019688 294.207808,96.4091619 295.410224,94.4549125 C296.39402,92.717802 297.104528,90.763582 297.541771,88.5921938 L319.513092,94.4549125 C318.638607,98.2548418 317.272245,101.729011 315.413965,104.877524 C312.6812,109.763147 308.855386,113.617303 303.936409,116.440108 C298.580189,119.480051 292.240269,121 284.916459,121 Z M314.102244,119.697174 L314.102244,99.1776581 L353.453865,53.9044415 L337.057357,53.9044415 L337.057357,61.884253 L314.102244,61.884253 L314.102244,33.384926 L381,33.384926 L381,53.9044415 L341.648379,99.1776581 L358.044888,99.1776581 L358.044888,91.1978466 L381,91.1978466 L381,119.697174 L314.102244,119.697174 Z" id="docz" fill="#292A35"></path>
                <g id="script" transform="translate(0.000000, 32.000000)" fill-rule="nonzero">
                    <path d="M38.6260198,10.8536585 L106.563107,10.8536585 C106.506159,5.15659522 102.380257,1.08536585 97.2963103,1.08536585 L29.3592233,1.08536585 C34.4431699,1.08536585 38.5690716,5.15659522 38.6260198,10.8536585 Z" id="Shape" fill="#E2D9C5"></path>
                    <path d="M88.5949683,10.2726092 C88.5949683,5.19856762 92.7448222,1.08536585 97.8640777,1.08536585 L29.9293035,1.08536585 C24.810048,1.08536585 20.6601942,5.19856762 20.6601942,10.2726092 L20.6601942,85.7439024 L79.325859,85.7439024 C84.4451145,85.7439024 88.5949683,81.6307007 88.5949683,76.5566591 L88.5949683,10.2726092 Z" id="Shape" fill="#F2EBDA"></path>
                    <g id="Group" transform="translate(1.087379, 1.085366)" fill="#E2D9C5">
                        <path d="M84.394493,0.00325609756 C79.2998541,0.00325609756 75.1699554,4.11614146 75.1699554,9.18979268 L75.1699554,75.468961 C75.1699554,80.5426122 71.0400566,84.6554976 65.9454177,84.6554976 L77.1460815,84.6554976 C82.2407204,84.6554976 86.3706192,80.5426122 86.3706192,75.468961 L86.3706192,9.18979268 C86.3706192,4.11614146 90.5005179,0.00325609756 95.5951569,0.00325609756 L84.394493,0.00325609756 Z" id="Shape"></path>
                        <path d="M67.7181768,74.9219366 L0.110075414,74.9219366 C0.166747905,80.5986171 4.27266984,84.6552805 9.33199743,84.6552805 L76.9400988,84.6552805 C71.8805532,84.6550634 67.7748493,80.5986171 67.7181768,74.9219366 Z" id="Shape"></path>
                    </g>
                    <path d="M63.0679612,59.695122 C64.9597789,53.7798939 66.6611335,47.7386519 70.6806218,43.1241843 C79.4601675,33.0452559 97.0596537,30.0840383 109.825243,30.4146883 C105.830947,33.7314529 102.349186,37.0859998 98.3140607,41.4772677 C93.7902904,46.4005458 83.9196538,52.9517401 79.1695864,54.4208831 C71.7714954,56.7092258 68.3485889,57.0916354 63.0679612,59.695122 Z" id="Shape" fill="#DDA064"></path>
                    <path d="M63.0679612,59.695122 C64.9597789,53.7756042 97.0596537,30.0627832 109.825243,30.3936729 C105.830947,33.7128428 102.349186,37.0698224 98.3140607,41.4642749 C93.7902904,46.3911233 83.9196538,52.9470684 79.1695864,54.4172769 C71.7714954,56.7070604 68.3485889,57.0897473 63.0679612,59.695122 Z" id="Shape" fill="#B57947"></path>
                    <path d="M80.4660194,17.9085366 C80.4660194,17.0091508 79.7343561,16.2804878 78.8317535,16.2804878 L44.0420329,16.2804878 C43.1394303,16.2804878 42.407767,17.0093677 42.407767,17.9085366 C42.407767,18.8077054 43.1394303,19.5365854 44.0420329,19.5365854 L78.8315358,19.5365854 C79.7341383,19.5365854 80.4660194,18.8077054 80.4660194,17.9085366 Z" id="Shape" fill="#292A35"></path>
                    <path d="M29.891207,19.5365854 L35.3515114,19.5365854 C36.2458828,19.5365854 36.9708738,18.8077054 36.9708738,17.9085366 C36.9708738,17.0093677 36.2458828,16.2804878 35.3515114,16.2804878 L29.891207,16.2804878 C28.9968357,16.2804878 28.2718447,17.0093677 28.2718447,17.9085366 C28.2718447,18.8077054 28.9966199,19.5365854 29.891207,19.5365854 Z" id="Shape" fill="#000000"></path>
                    <path d="M29.9300247,67.2926829 C29.0142144,67.2926829 28.2718447,68.0215629 28.2718447,68.9207317 C28.2718447,69.8201175 29.0142144,70.5487805 29.9300247,70.5487805 L47.2738588,70.5487805 C48.1896691,70.5487805 48.9320388,69.8199006 48.9320388,68.9207317 C48.9320388,68.0213459 48.1896691,67.2926829 47.2738588,67.2926829 L29.9300247,67.2926829 Z" id="Shape" fill="#000000"></path>
                    <path d="M56.5436893,52.6402439 C56.5436893,51.7408581 55.7837786,51.0121951 54.8463292,51.0121951 L29.9692047,51.0121951 C29.0317554,51.0121951 28.2718447,51.7410751 28.2718447,52.6402439 C28.2718447,53.5396297 29.0317554,54.2682927 29.9692047,54.2682927 L54.8463292,54.2682927 C55.7835524,54.2682927 56.5436893,53.5394127 56.5436893,52.6402439 Z" id="Shape" fill="#000000"></path>
                    <path d="M67.4174757,35.2743902 C67.4174757,34.3750045 66.680819,33.6463415 65.7720565,33.6463415 L29.9172639,33.6463415 C29.0085014,33.6463415 28.2718447,34.3752214 28.2718447,35.2743902 C28.2718447,36.1735591 29.0085014,36.902439 29.9172639,36.902439 L65.7720565,36.902439 C66.680819,36.9026559 67.4174757,36.173776 67.4174757,35.2743902 Z" id="Shape" fill="#000000"></path>
                    <path d="M87.6154892,56.4149415 C86.7148853,56.4149415 85.9848421,57.1533483 85.9848421,58.0642698 L85.9848421,78.0502617 C85.9848421,82.2692898 82.5914447,85.7013433 78.4206382,85.7013433 L78.2153135,85.7013433 C73.950427,85.7013433 70.6995619,82.1668798 70.6534997,77.4801941 C70.6445914,76.5756457 69.9171555,75.8471283 69.0228525,75.8471283 L21.8542379,75.8471283 L21.8542379,10.9497383 C21.8542379,6.73071016 25.2476353,3.29865672 29.4184418,3.29865672 L89.0729684,3.29865672 C89.0251679,3.34810361 88.9799748,3.3999679 88.9330434,3.45051361 C88.8761174,3.51182774 88.8185396,3.57248259 88.7629173,3.63489555 C88.7040358,3.7010445 88.6473271,3.76895155 88.5901838,3.83663885 C88.5352133,3.90146921 88.4798083,3.96564028 88.4263587,4.03178922 C88.3709536,4.10035557 88.3179385,4.17068003 88.2640544,4.24056497 C88.2119085,4.30825226 88.159328,4.37528026 88.1087029,4.44428614 C88.0569915,4.51505013 88.0074529,4.58735246 87.9572624,4.65943503 C87.9079411,4.73019902 87.8579679,4.80052348 87.8101674,4.87238629 C87.7621497,4.94512815 87.7163047,5.01940837 87.6700252,5.09346881 C87.6237457,5.16708973 87.5768143,5.24005136 87.532273,5.3147711 C87.4875144,5.38993037 87.4453631,5.46662798 87.4025599,5.54288607 C87.3597568,5.61870463 87.3158673,5.69408366 87.2748024,5.7712208 C87.2335202,5.84835794 87.1952798,5.9272532 87.1559531,6.00570892 C87.1166263,6.08394489 87.0762132,6.16152156 87.038842,6.24063657 C87.0012534,6.32019112 86.9667067,6.40128401 86.9308564,6.48171762 C86.8952233,6.56193145 86.8585039,6.641486 86.8248263,6.72257889 C86.7907142,6.80455084 86.7598612,6.88806114 86.7277045,6.97091214 C86.6959824,7.05266433 86.6631739,7.13375722 86.6334072,7.21638846 C86.6027715,7.30121734 86.5756122,7.38758457 86.5471492,7.47351227 C86.5197725,7.55614351 86.490875,7.6378957 86.4652366,7.721406 C86.4382945,7.80931157 86.4150461,7.89875549 86.3902768,7.98775989 C86.3672457,8.07083066 86.3424763,8.15324214 86.3211834,8.23719196 C86.297935,8.32949281 86.2783803,8.42311225 86.2573046,8.51629216 C86.2388363,8.59826411 86.2184124,8.67979653 86.2018996,8.76242777 C86.1823448,8.85934367 86.1669183,8.95735839 86.1499709,9.05515334 C86.1360653,9.13602647 86.119987,9.21602054 86.1078196,9.2973332 C86.0921758,9.40172107 86.0808775,9.50742753 86.0680583,9.61269445 C86.0589328,9.68873278 86.0474172,9.76389204 86.0398126,9.84036989 C86.0280797,9.95816337 86.0209097,10.0772754 86.0128705,10.1961677 C86.008525,10.2614376 86.0015722,10.326268 85.9983131,10.3917576 C85.9891876,10.5765791 85.9844075,10.7627191 85.9844075,10.949958 L85.9844075,11.5035434 L85.9844075,25.5888735 C85.9844075,26.5000148 86.7144507,27.2382019 87.6150547,27.2382019 C88.5156586,27.2382019 89.2457018,26.4997951 89.2457018,25.5888735 L89.2457018,13.1528717 L106.019966,13.1528717 C106.455167,13.1528717 106.872552,12.9768408 107.178692,12.6641167 C107.48505,12.3511729 107.654959,11.927468 107.650396,11.4872809 C107.586083,4.93831547 102.933143,0 96.8099057,0 L29.4177899,0 C23.4483829,0 18.5920745,4.91216356 18.5920745,10.949958 L18.5920745,75.8471283 L1.63051946,75.8471283 C1.1953181,75.8471283 0.77793326,76.0231592 0.471793107,76.3358833 C0.16543568,76.6488271 -0.00447319107,77.072532 8.95791279e-05,77.5127191 C0.0644029114,84.0616845 4.71734214,89 10.8231978,89 L78.2153135,89 L78.4206382,89 C84.3900452,89 89.2463536,84.0878364 89.2463536,78.050042 L89.2463536,58.0640501 C89.2463536,57.1531285 88.5160931,56.4149415 87.6154892,56.4149415 Z M89.3293526,9.81949232 C89.3367399,9.76916638 89.3458655,9.71927996 89.3543392,9.66939355 C89.366072,9.59906909 89.3780222,9.52874463 89.3917105,9.4588597 C89.4021397,9.40567682 89.4138725,9.35293348 89.4253881,9.30019013 C89.4397282,9.23470048 89.4542856,9.16943059 89.4701467,9.10460023 C89.4836177,9.05009877 89.4979578,8.99581708 89.5125152,8.94175515 C89.5292454,8.88000148 89.5464101,8.81824781 89.5644439,8.75715344 C89.5807395,8.70177293 89.5979042,8.64683194 89.6155035,8.59211072 C89.6341891,8.53365351 89.6537438,8.47563583 89.6739504,8.41761815 C89.6935051,8.36157835 89.7132771,8.30553855 89.7341355,8.25015803 C89.7545593,8.19543681 89.7760695,8.14137488 89.797797,8.08709319 C89.8206109,8.02995457 89.8434247,7.97303571 89.8677595,7.91655637 C89.8892697,7.86623043 89.9120835,7.81656378 89.9346801,7.76689713 C89.9614049,7.70822016 89.9879124,7.64910366 90.0159409,7.59130574 C90.0367993,7.54823201 90.0591786,7.50603734 90.080906,7.46340313 C90.1130627,7.40011112 90.1447848,7.3368191 90.1786797,7.27462591 C90.1917162,7.25045187 90.2060563,7.2271569 90.2193101,7.20320263 C90.3698815,6.93355227 90.5352276,6.67335177 90.7160002,6.42523828 C90.7177384,6.42282088 90.7192593,6.42062324 90.7209975,6.41820584 C90.7792272,6.33865129 90.8394123,6.26063509 90.9004665,6.18327819 C90.9102438,6.17097141 90.9195867,6.15844486 90.929364,6.14613808 C90.9891146,6.07141834 91.0508206,5.99823695 91.1131785,5.92593461 C91.124694,5.91252901 91.1362096,5.89890365 91.1479424,5.88549805 C91.2113867,5.81297595 91.2763518,5.7419922 91.3426206,5.6718875 C91.3534844,5.66045978 91.3641308,5.64881229 91.3752119,5.63738456 C91.4438707,5.56574152 91.5138332,5.49519729 91.5850993,5.42619142 C91.5931384,5.41849968 91.6011776,5.41080794 91.6092168,5.40289644 C91.6843939,5.33081387 91.7608746,5.26004988 91.8390935,5.191044 C91.8417008,5.1886266 91.8445254,5.18642896 91.8471327,5.18401156 C92.8457275,4.30429651 94.0746336,3.68390291 95.4308627,3.42853721 C95.4315146,3.42831745 95.4323837,3.42831745 95.4330355,3.42809768 C95.5440629,3.40722011 95.6561767,3.38875994 95.7689423,3.37293694 C95.7756778,3.37205788 95.7824133,3.37117882 95.7891488,3.37029977 C95.8966998,3.35535582 96.0049027,3.34260951 96.1137573,3.33228061 C96.1302702,3.33074226 96.1470004,3.3298632 96.1637305,3.32854462 C96.2634597,3.31975406 96.363406,3.31228209 96.4642215,3.30744728 C96.5224512,3.30481011 96.5811154,3.30437059 96.6397796,3.30283224 C96.7027892,3.30129389 96.7655816,3.29843696 96.8290259,3.29843696 C100.571367,3.29843696 103.533039,6.02021334 104.23375,9.8537755 L89.3260935,9.8537755 C89.3267453,9.84256753 89.3278317,9.83092005 89.3293526,9.81949232 Z M10.8229805,85.7013433 C7.08063982,85.7013433 4.11896742,82.9795669 3.41825628,79.1460047 L20.2233735,79.1460047 L67.50584,79.1460047 C67.5282193,79.3167613 67.5542923,79.4857598 67.5831899,79.6536594 C67.59275,79.709919 67.6044828,79.7650798 67.614912,79.8211196 C67.6355531,79.9321004 67.6561942,80.0430811 67.6796599,80.1525236 C67.6935654,80.218233 67.7094265,80.2828436 67.7242012,80.3478937 C67.7467978,80.4465677 67.7696116,80.5452417 67.7945982,80.6425972 C67.8119802,80.7109438 67.8308831,80.778631 67.8493515,80.8463183 C67.8747726,80.9390587 67.900411,81.0315793 67.9277877,81.1232209 C67.9482115,81.192007 67.9697217,81.2603536 67.9914492,81.3284804 C68.0196949,81.4177046 68.049027,81.5064892 68.0792282,81.5946145 C68.1024766,81.6625216 68.1261595,81.7302089 68.1507116,81.7974567 C68.1824337,81.8849227 68.2152422,81.9715097 68.2489198,82.0576572 C68.2745582,82.1231468 68.2999793,82.1886365 68.3264869,82.2534668 C68.3623372,82.3407131 68.3997085,82.4268606 68.437297,82.513008 C68.4642391,82.5747617 68.4909639,82.6367351 68.5189923,82.6978295 C68.5602745,82.7879327 68.6037295,82.8767174 68.6469671,82.9652822 C68.6739092,83.0202232 68.6997649,83.0756037 68.7275761,83.1301052 C68.7805911,83.2340535 68.8359962,83.3362438 68.8918358,83.4382142 C68.9120424,83.4753543 68.9313798,83.5131537 68.9520209,83.5498543 C69.029588,83.6878661 69.1097624,83.8236802 69.1925441,83.9572967 C69.2118815,83.9885031 69.2325227,84.018391 69.2520774,84.0493777 C69.316608,84.151568 69.3820077,84.2530989 69.4495801,84.352652 C69.4808677,84.3985826 69.5134589,84.4431947 69.545181,84.4886859 C69.6034107,84.5717566 69.6616403,84.6546076 69.7220427,84.7357005 C69.7583276,84.7844881 69.7954816,84.8319571 69.8324183,84.8800854 C69.8906479,84.955904 69.9493121,85.0315028 70.00928,85.1053435 C70.048824,85.1539113 70.0890198,85.2018198 70.1292156,85.2497284 C70.1891835,85.3213714 70.2500204,85.3921354 70.3117264,85.4620203 C70.3532259,85.5090498 70.3953772,85.55542 70.4377458,85.6015704 C70.467947,85.634535 70.4970618,85.6688182 70.5276976,85.7013433 L10.8229805,85.7013433 Z" id="Shape" fill="#000000"></path>
                    <path d="M111.998538,30.952009 C111.998318,30.9330504 111.99788,30.9140917 111.997222,30.8949152 C111.990644,30.7410671 111.962796,30.5928849 111.916091,30.4525475 C111.913898,30.4455742 111.913021,30.438383 111.910609,30.4316277 C111.908636,30.4259619 111.905347,30.4207319 111.903373,30.4150661 C111.877499,30.3433721 111.847678,30.2736392 111.812594,30.2069572 C111.808209,30.1986764 111.803166,30.1910494 111.79878,30.1827686 C111.766328,30.1239315 111.730367,30.0674915 111.691117,30.0132306 C111.682785,30.0016811 111.674891,29.9896958 111.66634,29.9783642 C111.623143,29.9217063 111.576219,29.8680992 111.526005,29.8175429 C111.515042,29.8064292 111.50342,29.7961872 111.492237,29.7855094 C111.444874,29.740183 111.39488,29.6976896 111.342255,29.6582469 C111.335238,29.653017 111.32866,29.6471333 111.321424,29.6419033 C111.26222,29.5991919 111.199508,29.5610568 111.134823,29.5261904 C111.122324,29.519435 111.109826,29.5133334 111.097108,29.5070138 C111.031107,29.4738907 110.963571,29.4436005 110.892746,29.419412 C110.892307,29.419194 110.891869,29.4189761 110.89143,29.4189761 C110.821044,29.3950055 110.748026,29.3769185 110.673693,29.3623182 C110.657247,29.3590495 110.640802,29.3562166 110.624137,29.3536016 C110.549804,29.3413983 110.474374,29.3322459 110.396971,29.3302847 C96.6270899,28.9761726 78.6717338,32.2703954 69.5940675,42.5690639 C65.6212865,47.0762022 63.7881676,52.7942949 62.0155679,58.323891 C61.8704094,58.7765007 61.7254702,59.2288925 61.5792154,59.6806305 C61.5730758,59.6995891 61.5671554,59.7187657 61.5616736,59.7381601 L58.78042,69.5550182 C58.5341768,70.4242816 59.0437664,71.3277577 59.9184448,71.5726943 C60.0675501,71.614534 60.2177519,71.6341463 60.3653223,71.6341463 C61.0838786,71.6341463 61.7443277,71.162578 61.9486897,70.441279 L64.5282126,61.3363496 C67.6815719,59.8676017 70.2207486,59.1807332 73.6506106,58.2539402 C75.4297884,57.7727837 77.4464385,57.2279959 79.8867233,56.4820724 C85.162422,54.8695006 95.2831681,48.1228485 99.9409567,43.1136337 C104.014603,38.7322324 107.442492,35.4761447 111.402555,32.2263766 C111.407159,32.222672 111.410668,32.2180958 111.415273,32.2141733 C111.472941,32.1655783 111.527759,32.1139324 111.578192,32.0579282 C111.581262,32.0544415 111.584551,32.0513907 111.587621,32.048122 C111.637396,31.9921178 111.682566,31.9319733 111.724447,31.8692137 C111.732121,31.8576642 111.739577,31.8461147 111.747032,31.8343473 C111.82597,31.7094819 111.888243,31.5737208 111.931221,31.4290252 C111.935387,31.4152965 111.939334,31.4017858 111.943062,31.3878392 C111.962138,31.3167989 111.977926,31.2444511 111.987355,31.1699241 C111.987793,31.1668733 111.987793,31.1640404 111.988013,31.1609896 C111.994152,31.1104333 111.998538,31.0592232 111.999853,31.0073594 C112.000511,30.9886187 111.998757,30.9703138 111.998538,30.952009 Z M72.0700937,44.7242444 C75.9005667,40.3783632 81.7715905,37.1024452 89.5202457,34.9877969 C91.6026775,34.4194743 93.8032973,33.947906 96.0712338,33.575707 C90.3085306,36.3530351 84.7984295,39.8316142 81.7191844,41.8758759 C76.7498095,45.1751107 71.3855246,49.1771219 67.4241458,52.7365474 C68.5963771,49.7855409 70.0135359,47.0574615 72.0700937,44.7242444 Z M97.5236955,40.8935145 C92.9904538,45.7689294 83.199713,52.047064 78.9192926,53.3552084 C76.5305369,54.0852241 74.5417344,54.6230386 72.7868958,55.0972219 C71.1991429,55.5262967 69.7547943,55.9172364 68.3264526,56.3678849 C68.9654129,55.7596838 69.7144481,55.0778274 70.5974589,54.3122916 C74.1509906,51.2318435 78.7500141,47.7811576 83.5474793,44.5961103 C91.8539639,39.0813324 99.3710672,35.2102883 104.885992,33.532124 C102.490878,35.72435 100.135013,38.0848066 97.5236955,40.8935145 Z" id="Shape" fill="#000000"></path>
                </g>
            </g>
        </g>
    </g>
</svg>